<svg xmlns="http://www.w3.org/2000/svg" viewBox="0 0 256 256" fill="currentColor"><path d="M136,32V64a8,8,0,0,1-16,0V32a8,8,0,0,1,16,0Zm37.25,58.75a8,8,0,0,0,5.66-2.35l22.63-22.62a8,8,0,0,0-11.32-11.32L167.6,77.09a8,8,0,0,0,5.65,13.66ZM224,120H192a8,8,0,0,0,0,16h32a8,8,0,0,0,0-16Zm-42.26,48.77a8,8,0,1,0-11.31,11.31l22.62,22.63a8,8,0,0,0,11.32-11.32ZM128,184a8,8,0,0,0-8,8v32a8,8,0,0,0,16,0V192A8,8,0,0,0,128,184ZM74.26,168.77,51.63,191.39a8,8,0,0,0,11.32,11.32l22.62-22.63a8,8,0,0,0-11.31-11.31ZM72,128a8,8,0,0,0-8-8H32a8,8,0,0,0,0,16H64A8,8,0,0,0,72,128ZM65.28,54.46A8,8,0,1,0,53.97,65.77L76.59,88.4a8,8,0,0,0,11.31-11.31Z"/></svg>
